<mxfile host="app.diagrams.net" modified="2022-06-06T10:54:38.114Z" agent="5.0 (Windows)" etag="vsiWsLYokXsDYeCNWiA5" version="19.0.0" type="github">
  <diagram id="Vgr4V98iy7H3mkGHoCvp" name="Pagina-1">
    <mxGraphModel dx="599" dy="343" grid="1" gridSize="10" guides="1" tooltips="1" connect="1" arrows="1" fold="1" page="1" pageScale="1" pageWidth="1169" pageHeight="827" math="1" shadow="0">
      <root>
        <mxCell id="0" />
        <mxCell id="1" parent="0" />
        <mxCell id="Vg_-dY5ANIHzuDw8YEnt-4" style="edgeStyle=none;rounded=0;orthogonalLoop=1;jettySize=auto;html=1;entryX=0;entryY=0.5;entryDx=0;entryDy=0;fontColor=#fff;exitX=1;exitY=0.5;exitDx=0;exitDy=0;" edge="1" parent="1" source="Vg_-dY5ANIHzuDw8YEnt-1" target="Vg_-dY5ANIHzuDw8YEnt-3">
          <mxGeometry relative="1" as="geometry">
            <mxPoint x="300" y="75" as="sourcePoint" />
          </mxGeometry>
        </mxCell>
        <mxCell id="Vg_-dY5ANIHzuDw8YEnt-6" style="edgeStyle=orthogonalEdgeStyle;rounded=0;orthogonalLoop=1;jettySize=auto;html=1;entryX=0.5;entryY=0;entryDx=0;entryDy=0;fontColor=#000000;" edge="1" parent="1" source="Vg_-dY5ANIHzuDw8YEnt-1" target="Vg_-dY5ANIHzuDw8YEnt-5">
          <mxGeometry relative="1" as="geometry">
            <Array as="points">
              <mxPoint x="240" y="160" />
              <mxPoint x="455" y="160" />
            </Array>
          </mxGeometry>
        </mxCell>
        <mxCell id="Vg_-dY5ANIHzuDw8YEnt-10" style="edgeStyle=orthogonalEdgeStyle;rounded=0;orthogonalLoop=1;jettySize=auto;html=1;entryX=0.5;entryY=0;entryDx=0;entryDy=0;fontColor=#000000;" edge="1" parent="1" source="Vg_-dY5ANIHzuDw8YEnt-1" target="Vg_-dY5ANIHzuDw8YEnt-9">
          <mxGeometry relative="1" as="geometry">
            <Array as="points">
              <mxPoint x="240" y="160" />
              <mxPoint x="100" y="160" />
            </Array>
          </mxGeometry>
        </mxCell>
        <mxCell id="Vg_-dY5ANIHzuDw8YEnt-44" style="edgeStyle=orthogonalEdgeStyle;rounded=0;orthogonalLoop=1;jettySize=auto;html=1;entryX=0.5;entryY=0;entryDx=0;entryDy=0;fontSize=11;fontColor=#000000;endArrow=block;endFill=1;" edge="1" parent="1" source="Vg_-dY5ANIHzuDw8YEnt-1" target="Vg_-dY5ANIHzuDw8YEnt-41">
          <mxGeometry relative="1" as="geometry">
            <Array as="points">
              <mxPoint x="240" y="160" />
              <mxPoint x="790" y="160" />
            </Array>
          </mxGeometry>
        </mxCell>
        <mxCell id="Vg_-dY5ANIHzuDw8YEnt-1" value="&lt;b&gt;&lt;font style=&quot;font-size: 23px;&quot;&gt;DIODI&lt;/font&gt;&lt;/b&gt;" style="whiteSpace=wrap;html=1;fillColor=#0000CC;strokeColor=default;fontColor=#fff;" vertex="1" parent="1">
          <mxGeometry x="180" y="90" width="120" height="50" as="geometry" />
        </mxCell>
        <mxCell id="Vg_-dY5ANIHzuDw8YEnt-3" value="&lt;div style=&quot;font-size: 13px;&quot; align=&quot;left&quot;&gt;&lt;font style=&quot;font-size: 13px;&quot;&gt;è un dispositivo elettronico con:&lt;br&gt;&lt;/font&gt;&lt;/div&gt;&lt;font style=&quot;font-size: 13px;&quot;&gt;- 2 terminali (bipolo)&lt;br&gt;- relazione \(v-i\) non-lineare&lt;/font&gt;" style="whiteSpace=wrap;html=1;strokeColor=#666666;fillColor=#f5f5f5;align=left;fontColor=#333333;" vertex="1" parent="1">
          <mxGeometry x="370" y="20" width="190" height="70" as="geometry" />
        </mxCell>
        <mxCell id="Vg_-dY5ANIHzuDw8YEnt-18" style="edgeStyle=orthogonalEdgeStyle;rounded=0;orthogonalLoop=1;jettySize=auto;html=1;entryX=0.5;entryY=0;entryDx=0;entryDy=0;fontSize=11;fontColor=#000000;endArrow=none;endFill=0;" edge="1" parent="1" source="Vg_-dY5ANIHzuDw8YEnt-5" target="Vg_-dY5ANIHzuDw8YEnt-16">
          <mxGeometry relative="1" as="geometry">
            <Array as="points">
              <mxPoint x="455" y="235" />
              <mxPoint x="345" y="235" />
            </Array>
          </mxGeometry>
        </mxCell>
        <mxCell id="Vg_-dY5ANIHzuDw8YEnt-19" style="edgeStyle=orthogonalEdgeStyle;rounded=0;orthogonalLoop=1;jettySize=auto;html=1;entryX=0.5;entryY=0;entryDx=0;entryDy=0;fontSize=11;fontColor=#000000;endArrow=none;endFill=0;" edge="1" parent="1" source="Vg_-dY5ANIHzuDw8YEnt-5" target="Vg_-dY5ANIHzuDw8YEnt-17">
          <mxGeometry relative="1" as="geometry">
            <Array as="points">
              <mxPoint x="455" y="235" />
              <mxPoint x="565" y="235" />
              <mxPoint x="565" y="255" />
            </Array>
          </mxGeometry>
        </mxCell>
        <mxCell id="Vg_-dY5ANIHzuDw8YEnt-5" value="A GIUNZIONE" style="whiteSpace=wrap;html=1;fontColor=#000000;strokeColor=#2D7600;fillColor=#66ff66;" vertex="1" parent="1">
          <mxGeometry x="405" y="185" width="100" height="30" as="geometry" />
        </mxCell>
        <mxCell id="Vg_-dY5ANIHzuDw8YEnt-15" style="edgeStyle=orthogonalEdgeStyle;rounded=0;orthogonalLoop=1;jettySize=auto;html=1;fontColor=#000000;entryX=0;entryY=0.5;entryDx=0;entryDy=0;" edge="1" parent="1" source="Vg_-dY5ANIHzuDw8YEnt-9" target="Vg_-dY5ANIHzuDw8YEnt-13">
          <mxGeometry relative="1" as="geometry">
            <mxPoint x="40" y="250" as="targetPoint" />
            <Array as="points">
              <mxPoint x="30" y="250" />
            </Array>
          </mxGeometry>
        </mxCell>
        <mxCell id="Vg_-dY5ANIHzuDw8YEnt-9" value="ESPRESSIONE ANALITICA" style="whiteSpace=wrap;html=1;fontColor=#000000;strokeColor=#2D7600;fillColor=#66ff66;" vertex="1" parent="1">
          <mxGeometry x="20" y="180" width="160" height="30" as="geometry" />
        </mxCell>
        <mxCell id="Vg_-dY5ANIHzuDw8YEnt-36" style="edgeStyle=orthogonalEdgeStyle;rounded=0;orthogonalLoop=1;jettySize=auto;html=1;entryX=0.5;entryY=0;entryDx=0;entryDy=0;fontSize=11;fontColor=#000000;endArrow=block;endFill=1;" edge="1" parent="1" source="Vg_-dY5ANIHzuDw8YEnt-13" target="Vg_-dY5ANIHzuDw8YEnt-34">
          <mxGeometry relative="1" as="geometry" />
        </mxCell>
        <mxCell id="Vg_-dY5ANIHzuDw8YEnt-13" value="&lt;font style=&quot;font-size: 11px;&quot;&gt;$$i_D = I_S (e^{v_D/{\eta V_T}} - 1)$$&lt;/font&gt;" style="text;html=1;whiteSpace=wrap;align=center;verticalAlign=middle;fillColor=#f5f5f5;strokeColor=#666666;fontColor=#333333;" vertex="1" parent="1">
          <mxGeometry x="50" y="230" width="140" height="40" as="geometry" />
        </mxCell>
        <mxCell id="Vg_-dY5ANIHzuDw8YEnt-27" style="edgeStyle=orthogonalEdgeStyle;rounded=0;orthogonalLoop=1;jettySize=auto;html=1;entryX=0.5;entryY=0;entryDx=0;entryDy=0;fontSize=13;fontColor=#000000;endArrow=block;endFill=1;" edge="1" parent="1" source="Vg_-dY5ANIHzuDw8YEnt-16" target="Vg_-dY5ANIHzuDw8YEnt-21">
          <mxGeometry relative="1" as="geometry" />
        </mxCell>
        <mxCell id="Vg_-dY5ANIHzuDw8YEnt-16" value="$$v_D &amp;gt; 0$$" style="whiteSpace=wrap;html=1;fontSize=11;strokeColor=#d79b00;fillColor=#ffe6cc;" vertex="1" parent="1">
          <mxGeometry x="315" y="255" width="60" height="20" as="geometry" />
        </mxCell>
        <mxCell id="Vg_-dY5ANIHzuDw8YEnt-31" style="edgeStyle=orthogonalEdgeStyle;rounded=0;orthogonalLoop=1;jettySize=auto;html=1;fontSize=13;fontColor=#000000;endArrow=block;endFill=1;entryX=0.5;entryY=0;entryDx=0;entryDy=0;" edge="1" parent="1" source="Vg_-dY5ANIHzuDw8YEnt-17" target="Vg_-dY5ANIHzuDw8YEnt-22">
          <mxGeometry relative="1" as="geometry">
            <mxPoint x="575" y="305" as="targetPoint" />
          </mxGeometry>
        </mxCell>
        <mxCell id="Vg_-dY5ANIHzuDw8YEnt-17" value="$$v_D &amp;lt; 0$$" style="whiteSpace=wrap;html=1;fontSize=11;strokeColor=#d79b00;fillColor=#ffe6cc;" vertex="1" parent="1">
          <mxGeometry x="535" y="255" width="60" height="20" as="geometry" />
        </mxCell>
        <mxCell id="Vg_-dY5ANIHzuDw8YEnt-21" value="POLARIZZAZIONE DIRETTA&lt;br&gt;&lt;div&gt;&lt;font style=&quot;font-size: 10px;&quot;&gt;la corrente crece&amp;nbsp; rapidamente con \(v_D\).&lt;/font&gt;&lt;/div&gt;&lt;div&gt;&lt;font style=&quot;font-size: 10px;&quot;&gt;La curva è quasi verticale per \( v_D = V_\gamma \cong 0.6V-0.7V \).&lt;/font&gt;&lt;/div&gt;&lt;div&gt;&lt;font style=&quot;font-size: 10px;&quot;&gt;---&lt;/font&gt;&lt;/div&gt;&lt;div&gt;&lt;font style=&quot;font-size: 10px;&quot;&gt;\(V_\gamma\) → tensione di soglia&lt;br&gt;&lt;/font&gt;&lt;/div&gt;" style="whiteSpace=wrap;html=1;fontSize=11;fontColor=#000000;strokeColor=#2D7600;fillColor=#66ff66;verticalAlign=middle;" vertex="1" parent="1">
          <mxGeometry x="250" y="305" width="190" height="90" as="geometry" />
        </mxCell>
        <mxCell id="Vg_-dY5ANIHzuDw8YEnt-22" value="&lt;div style=&quot;font-size: 12px;&quot;&gt;&lt;font style=&quot;font-size: 11px;&quot;&gt;POLARIZZAZIONE INVERSA&lt;/font&gt;&lt;/div&gt;&lt;div&gt;&lt;font style=&quot;font-size: 10px;&quot;&gt;la corrente satura ad un calore negativo molto piccolo (pA-fA) in modulo (\(-I_S \))&lt;/font&gt;&lt;br&gt;&lt;/div&gt;" style="whiteSpace=wrap;html=1;fontSize=11;fontColor=#000000;strokeColor=#2D7600;fillColor=#66ff66;verticalAlign=middle;" vertex="1" parent="1">
          <mxGeometry x="480" y="305" width="170" height="70" as="geometry" />
        </mxCell>
        <mxCell id="Vg_-dY5ANIHzuDw8YEnt-23" value="" style="shape=image;imageAspect=0;aspect=fixed;verticalLabelPosition=bottom;verticalAlign=top;fontSize=11;fontColor=#000000;strokeColor=#2D7600;fillColor=#66ff66;html=1;image=https://raw.githubusercontent.com/BCPTe/SETM/main/images/03/diodo_simbolo.png;imageBorder=none;" vertex="1" parent="1">
          <mxGeometry x="561" y="13.48" width="63.63" height="83.05" as="geometry" />
        </mxCell>
        <mxCell id="Vg_-dY5ANIHzuDw8YEnt-34" value="&lt;div style=&quot;font-size: 11px;&quot; align=&quot;left&quot;&gt;&lt;font style=&quot;font-size: 11px;&quot;&gt;con:&lt;/font&gt;&lt;/div&gt;&lt;div style=&quot;font-size: 11px;&quot; align=&quot;left&quot;&gt;&lt;font style=&quot;font-size: 11px;&quot;&gt;\(I_S\) → corrente di saturazione inversa&lt;/font&gt;&lt;/div&gt;&lt;div style=&quot;font-size: 11px;&quot; align=&quot;left&quot;&gt;&lt;font style=&quot;font-size: 11px;&quot;&gt;\( V_T = \frac{kT}{q} \) → circa 26mV @ 300K&lt;br&gt;&lt;/font&gt;&lt;/div&gt;&lt;div style=&quot;font-size: 11px;&quot; align=&quot;left&quot;&gt;&lt;font style=&quot;font-size: 11px;&quot;&gt;\(T\) → temperatura di Boltzmann&lt;/font&gt;&lt;/div&gt;&lt;div style=&quot;font-size: 11px;&quot; align=&quot;left&quot;&gt;&lt;font style=&quot;font-size: 11px;&quot;&gt;\(k\) → costante di Boltzmann&lt;/font&gt;&lt;/div&gt;&lt;div style=&quot;font-size: 11px;&quot; align=&quot;left&quot;&gt;&lt;font style=&quot;font-size: 11px;&quot;&gt;\(q\) → carica elementare&lt;/font&gt;&lt;/div&gt;&lt;div style=&quot;font-size: 11px;&quot; align=&quot;left&quot;&gt;&lt;font style=&quot;font-size: 11px;&quot;&gt;\( \eta \) → fattore di non-idealità (\( 1 \le \eta \le 2\), cresce con \( i_D \)&lt;br&gt;&lt;/font&gt;&lt;/div&gt;" style="whiteSpace=wrap;html=1;fontSize=12;fontColor=#333333;strokeColor=#666666;fillColor=#f5f5f5;align=left;" vertex="1" parent="1">
          <mxGeometry x="20" y="300" width="200" height="130" as="geometry" />
        </mxCell>
        <mxCell id="Vg_-dY5ANIHzuDw8YEnt-37" value="&lt;b&gt;&lt;span class=&quot;mw-redirect&quot;&gt;©&lt;/span&gt;&lt;/b&gt; BCPTe" style="whiteSpace=wrap;html=1;shape=partialRectangle;top=0;left=0;bottom=1;right=0;points=[[0,1],[1,1]];fillColor=none;align=center;verticalAlign=bottom;routingCenterY=0.5;snapToPoint=1;recursiveResize=0;autosize=1;treeFolding=1;treeMoving=1;newEdgeStyle={&quot;edgeStyle&quot;:&quot;entityRelationEdgeStyle&quot;,&quot;startArrow&quot;:&quot;none&quot;,&quot;endArrow&quot;:&quot;none&quot;,&quot;segment&quot;:10,&quot;curved&quot;:1};" vertex="1" parent="1">
          <mxGeometry x="40" width="80" height="20" as="geometry" />
        </mxCell>
        <mxCell id="Vg_-dY5ANIHzuDw8YEnt-38" value="" style="edgeStyle=entityRelationEdgeStyle;startArrow=none;endArrow=none;segment=10;curved=1;rounded=0;" edge="1" parent="1" target="Vg_-dY5ANIHzuDw8YEnt-37">
          <mxGeometry relative="1" as="geometry">
            <mxPoint y="40" as="sourcePoint" />
          </mxGeometry>
        </mxCell>
        <mxCell id="Vg_-dY5ANIHzuDw8YEnt-45" style="rounded=0;orthogonalLoop=1;jettySize=auto;html=1;fontSize=11;fontColor=#000000;endArrow=block;endFill=1;entryX=0.5;entryY=1;entryDx=0;entryDy=0;edgeStyle=orthogonalEdgeStyle;" edge="1" parent="1" source="Vg_-dY5ANIHzuDw8YEnt-41" target="Vg_-dY5ANIHzuDw8YEnt-43">
          <mxGeometry relative="1" as="geometry">
            <mxPoint x="910" y="130" as="targetPoint" />
          </mxGeometry>
        </mxCell>
        <mxCell id="Vg_-dY5ANIHzuDw8YEnt-41" value="&lt;div&gt;BREAKDOWN&lt;/div&gt;" style="whiteSpace=wrap;html=1;fontSize=11;fontColor=#000000;strokeColor=#2D7600;fillColor=#66ff66;" vertex="1" parent="1">
          <mxGeometry x="740" y="185" width="100" height="30" as="geometry" />
        </mxCell>
        <mxCell id="Vg_-dY5ANIHzuDw8YEnt-43" value="applicando \(v_D\) molto negativa&lt;br&gt;(\( v_D \le V_{BR} &amp;lt; 0 \)) il diodo conduce in direzione inversa (fenomeno della rottura o breakdown). La corrente cresce in modo verticale" style="fontSize=11;fontColor=#333333;strokeColor=#666666;fillColor=#f5f5f5;whiteSpace=wrap;html=1;" vertex="1" parent="1">
          <mxGeometry x="905" y="80" width="220" height="80" as="geometry" />
        </mxCell>
        <mxCell id="Vg_-dY5ANIHzuDw8YEnt-51" style="edgeStyle=orthogonalEdgeStyle;rounded=0;orthogonalLoop=1;jettySize=auto;html=1;entryX=0.5;entryY=0;entryDx=0;entryDy=0;fontSize=11;fontColor=#000000;endArrow=block;endFill=1;" edge="1" parent="1" source="Vg_-dY5ANIHzuDw8YEnt-47" target="Vg_-dY5ANIHzuDw8YEnt-48">
          <mxGeometry relative="1" as="geometry">
            <Array as="points">
              <mxPoint x="607" y="500" />
              <mxPoint x="302" y="500" />
            </Array>
          </mxGeometry>
        </mxCell>
        <mxCell id="Vg_-dY5ANIHzuDw8YEnt-52" style="edgeStyle=orthogonalEdgeStyle;rounded=0;orthogonalLoop=1;jettySize=auto;html=1;entryX=0.5;entryY=0;entryDx=0;entryDy=0;fontSize=11;fontColor=#000000;endArrow=block;endFill=1;" edge="1" parent="1" source="Vg_-dY5ANIHzuDw8YEnt-47" target="Vg_-dY5ANIHzuDw8YEnt-49">
          <mxGeometry relative="1" as="geometry">
            <Array as="points">
              <mxPoint x="607" y="500" />
              <mxPoint x="820" y="500" />
            </Array>
          </mxGeometry>
        </mxCell>
        <mxCell id="Vg_-dY5ANIHzuDw8YEnt-53" value="approssimazioni" style="edgeLabel;html=1;align=center;verticalAlign=middle;resizable=0;points=[];fontSize=11;fontColor=#000000;" vertex="1" connectable="0" parent="Vg_-dY5ANIHzuDw8YEnt-52">
          <mxGeometry x="-0.7826" relative="1" as="geometry">
            <mxPoint y="-9" as="offset" />
          </mxGeometry>
        </mxCell>
        <mxCell id="Vg_-dY5ANIHzuDw8YEnt-47" value="ANALISI DI CIRCUITI CON DIODI" style="whiteSpace=wrap;html=1;fillColor=#0000CC;strokeColor=default;fontColor=#fff;" vertex="1" parent="1">
          <mxGeometry x="547" y="400" width="120" height="60" as="geometry" />
        </mxCell>
        <mxCell id="Vg_-dY5ANIHzuDw8YEnt-57" style="edgeStyle=orthogonalEdgeStyle;rounded=0;orthogonalLoop=1;jettySize=auto;html=1;entryX=0.5;entryY=0;entryDx=0;entryDy=0;fontSize=11;fontColor=#000000;endArrow=block;endFill=1;" edge="1" parent="1" target="Vg_-dY5ANIHzuDw8YEnt-54">
          <mxGeometry relative="1" as="geometry">
            <mxPoint x="152" y="626" as="sourcePoint" />
            <Array as="points">
              <mxPoint x="152" y="646" />
              <mxPoint x="82" y="646" />
            </Array>
          </mxGeometry>
        </mxCell>
        <mxCell id="Vg_-dY5ANIHzuDw8YEnt-58" style="edgeStyle=orthogonalEdgeStyle;rounded=0;orthogonalLoop=1;jettySize=auto;html=1;entryX=0.5;entryY=0;entryDx=0;entryDy=0;fontSize=11;fontColor=#000000;endArrow=block;endFill=1;exitX=0.5;exitY=1;exitDx=0;exitDy=0;" edge="1" parent="1" source="Vg_-dY5ANIHzuDw8YEnt-67" target="Vg_-dY5ANIHzuDw8YEnt-55">
          <mxGeometry relative="1" as="geometry">
            <mxPoint x="152" y="626" as="sourcePoint" />
            <Array as="points">
              <mxPoint x="152" y="646" />
              <mxPoint x="222" y="646" />
            </Array>
          </mxGeometry>
        </mxCell>
        <mxCell id="Vg_-dY5ANIHzuDw8YEnt-59" value="si ipotizza" style="edgeLabel;html=1;align=center;verticalAlign=middle;resizable=0;points=[];fontSize=11;fontColor=#000000;" vertex="1" connectable="0" parent="Vg_-dY5ANIHzuDw8YEnt-58">
          <mxGeometry x="-0.8527" relative="1" as="geometry">
            <mxPoint y="2" as="offset" />
          </mxGeometry>
        </mxCell>
        <mxCell id="Vg_-dY5ANIHzuDw8YEnt-69" style="edgeStyle=orthogonalEdgeStyle;rounded=0;orthogonalLoop=1;jettySize=auto;html=1;fontSize=10;fontColor=#000000;endArrow=block;endFill=1;entryX=0.5;entryY=0;entryDx=0;entryDy=0;" edge="1" parent="1" target="Vg_-dY5ANIHzuDw8YEnt-67">
          <mxGeometry relative="1" as="geometry">
            <mxPoint x="202" y="586" as="targetPoint" />
            <mxPoint x="302.0000000000002" y="556" as="sourcePoint" />
            <Array as="points">
              <mxPoint x="302" y="576" />
              <mxPoint x="152" y="576" />
            </Array>
          </mxGeometry>
        </mxCell>
        <mxCell id="Vg_-dY5ANIHzuDw8YEnt-70" style="edgeStyle=orthogonalEdgeStyle;rounded=0;orthogonalLoop=1;jettySize=auto;html=1;entryX=0.5;entryY=0;entryDx=0;entryDy=0;fontSize=10;fontColor=#000000;endArrow=block;endFill=1;" edge="1" parent="1" target="Vg_-dY5ANIHzuDw8YEnt-68">
          <mxGeometry relative="1" as="geometry">
            <mxPoint x="302.0000000000002" y="556" as="sourcePoint" />
            <Array as="points">
              <mxPoint x="302" y="576" />
              <mxPoint x="452" y="576" />
            </Array>
          </mxGeometry>
        </mxCell>
        <mxCell id="Vg_-dY5ANIHzuDw8YEnt-48" value="AMPIO SEGNALE" style="whiteSpace=wrap;html=1;fontSize=11;strokeColor=#d6b656;fillColor=#fff2cc;" vertex="1" parent="1">
          <mxGeometry x="242" y="520" width="120" height="40" as="geometry" />
        </mxCell>
        <mxCell id="Vg_-dY5ANIHzuDw8YEnt-127" style="rounded=0;orthogonalLoop=1;jettySize=auto;html=1;entryX=0.5;entryY=1;entryDx=0;entryDy=0;fontSize=11;fontColor=#000000;endArrow=block;endFill=1;exitX=0.583;exitY=0.004;exitDx=0;exitDy=0;edgeStyle=orthogonalEdgeStyle;exitPerimeter=0;" edge="1" parent="1" source="Vg_-dY5ANIHzuDw8YEnt-49" target="Vg_-dY5ANIHzuDw8YEnt-126">
          <mxGeometry relative="1" as="geometry">
            <Array as="points">
              <mxPoint x="880" y="520" />
              <mxPoint x="880" y="490" />
              <mxPoint x="815" y="490" />
            </Array>
          </mxGeometry>
        </mxCell>
        <mxCell id="Vg_-dY5ANIHzuDw8YEnt-49" value="&lt;div&gt;PICCOLO SEGNALE&lt;/div&gt;" style="whiteSpace=wrap;html=1;fontSize=11;strokeColor=#d6b656;fillColor=#fff2cc;" vertex="1" parent="1">
          <mxGeometry x="760" y="520" width="120" height="30" as="geometry" />
        </mxCell>
        <mxCell id="Vg_-dY5ANIHzuDw8YEnt-65" style="edgeStyle=orthogonalEdgeStyle;rounded=0;orthogonalLoop=1;jettySize=auto;html=1;entryX=0.5;entryY=0;entryDx=0;entryDy=0;fontSize=11;fontColor=#000000;endArrow=block;endFill=1;" edge="1" parent="1" source="Vg_-dY5ANIHzuDw8YEnt-54" target="Vg_-dY5ANIHzuDw8YEnt-60">
          <mxGeometry relative="1" as="geometry" />
        </mxCell>
        <mxCell id="Vg_-dY5ANIHzuDw8YEnt-66" value="equivale" style="edgeLabel;html=1;align=center;verticalAlign=middle;resizable=0;points=[];fontSize=9;fontColor=#000000;" vertex="1" connectable="0" parent="Vg_-dY5ANIHzuDw8YEnt-65">
          <mxGeometry x="-0.28" relative="1" as="geometry">
            <mxPoint y="-8" as="offset" />
          </mxGeometry>
        </mxCell>
        <mxCell id="Vg_-dY5ANIHzuDw8YEnt-117" style="edgeStyle=none;rounded=0;orthogonalLoop=1;jettySize=auto;html=1;entryX=0.5;entryY=1;entryDx=0;entryDy=0;fontSize=8;fontColor=#000000;endArrow=block;endFill=1;" edge="1" parent="1" source="Vg_-dY5ANIHzuDw8YEnt-54" target="Vg_-dY5ANIHzuDw8YEnt-116">
          <mxGeometry relative="1" as="geometry" />
        </mxCell>
        <mxCell id="Vg_-dY5ANIHzuDw8YEnt-54" value="DIODO OFF" style="whiteSpace=wrap;html=1;fontSize=11;strokeColor=#b85450;fillColor=#f8cecc;" vertex="1" parent="1">
          <mxGeometry x="42" y="666" width="80" height="30" as="geometry" />
        </mxCell>
        <mxCell id="Vg_-dY5ANIHzuDw8YEnt-63" style="edgeStyle=orthogonalEdgeStyle;rounded=0;orthogonalLoop=1;jettySize=auto;html=1;entryX=0.5;entryY=0;entryDx=0;entryDy=0;fontSize=11;fontColor=#000000;endArrow=block;endFill=1;" edge="1" parent="1" source="Vg_-dY5ANIHzuDw8YEnt-55" target="Vg_-dY5ANIHzuDw8YEnt-61">
          <mxGeometry relative="1" as="geometry" />
        </mxCell>
        <mxCell id="Vg_-dY5ANIHzuDw8YEnt-64" value="equivale" style="edgeLabel;html=1;align=center;verticalAlign=middle;resizable=0;points=[];fontSize=9;fontColor=#000000;" vertex="1" connectable="0" parent="Vg_-dY5ANIHzuDw8YEnt-63">
          <mxGeometry x="-0.26" relative="1" as="geometry">
            <mxPoint y="-9" as="offset" />
          </mxGeometry>
        </mxCell>
        <mxCell id="Vg_-dY5ANIHzuDw8YEnt-113" style="edgeStyle=none;rounded=0;orthogonalLoop=1;jettySize=auto;html=1;entryX=0.5;entryY=1;entryDx=0;entryDy=0;fontSize=8;fontColor=#000000;endArrow=block;endFill=1;" edge="1" parent="1" source="Vg_-dY5ANIHzuDw8YEnt-55" target="Vg_-dY5ANIHzuDw8YEnt-109">
          <mxGeometry relative="1" as="geometry" />
        </mxCell>
        <mxCell id="Vg_-dY5ANIHzuDw8YEnt-55" value="&lt;div&gt;DIODO ON&lt;/div&gt;" style="whiteSpace=wrap;html=1;fontSize=11;strokeColor=#6c8ebf;fillColor=#dae8fc;" vertex="1" parent="1">
          <mxGeometry x="182" y="666" width="80" height="30" as="geometry" />
        </mxCell>
        <mxCell id="Vg_-dY5ANIHzuDw8YEnt-73" style="edgeStyle=orthogonalEdgeStyle;rounded=0;orthogonalLoop=1;jettySize=auto;html=1;entryX=0.5;entryY=0;entryDx=0;entryDy=0;fontSize=10;fontColor=#000000;endArrow=block;endFill=1;" edge="1" parent="1" source="Vg_-dY5ANIHzuDw8YEnt-60" target="Vg_-dY5ANIHzuDw8YEnt-72">
          <mxGeometry relative="1" as="geometry" />
        </mxCell>
        <mxCell id="Vg_-dY5ANIHzuDw8YEnt-74" value="cioè" style="edgeLabel;html=1;align=center;verticalAlign=middle;resizable=0;points=[];fontSize=9;fontColor=#000000;" vertex="1" connectable="0" parent="Vg_-dY5ANIHzuDw8YEnt-73">
          <mxGeometry relative="1" as="geometry">
            <mxPoint y="-3.937" as="offset" />
          </mxGeometry>
        </mxCell>
        <mxCell id="Vg_-dY5ANIHzuDw8YEnt-60" value="circuito aperto" style="whiteSpace=wrap;html=1;fontSize=11;strokeColor=#b85450;fillColor=#f8cecc;" vertex="1" parent="1">
          <mxGeometry x="37" y="726" width="90" height="30" as="geometry" />
        </mxCell>
        <mxCell id="Vg_-dY5ANIHzuDw8YEnt-78" style="edgeStyle=orthogonalEdgeStyle;rounded=0;orthogonalLoop=1;jettySize=auto;html=1;entryX=0.5;entryY=0;entryDx=0;entryDy=0;fontSize=9;fontColor=#000000;endArrow=block;endFill=1;" edge="1" parent="1" source="Vg_-dY5ANIHzuDw8YEnt-61" target="Vg_-dY5ANIHzuDw8YEnt-77">
          <mxGeometry relative="1" as="geometry" />
        </mxCell>
        <mxCell id="Vg_-dY5ANIHzuDw8YEnt-79" value="cioè" style="edgeLabel;html=1;align=center;verticalAlign=middle;resizable=0;points=[];fontSize=9;fontColor=#000000;" vertex="1" connectable="0" parent="Vg_-dY5ANIHzuDw8YEnt-78">
          <mxGeometry relative="1" as="geometry">
            <mxPoint y="-3.937" as="offset" />
          </mxGeometry>
        </mxCell>
        <mxCell id="Vg_-dY5ANIHzuDw8YEnt-61" value="generatore ideale di tensione \(V_\gamma\)" style="whiteSpace=wrap;html=1;fontSize=11;strokeColor=#6c8ebf;fillColor=#dae8fc;" vertex="1" parent="1">
          <mxGeometry x="177" y="726" width="90" height="30" as="geometry" />
        </mxCell>
        <mxCell id="Vg_-dY5ANIHzuDw8YEnt-67" value="&lt;div&gt;DIODO SEMI-IDEALE&lt;/div&gt;" style="whiteSpace=wrap;html=1;fontSize=10;fontColor=#000000;strokeColor=#2D7600;fillColor=#66ff66;" vertex="1" parent="1">
          <mxGeometry x="92" y="596" width="120" height="30" as="geometry" />
        </mxCell>
        <mxCell id="Vg_-dY5ANIHzuDw8YEnt-97" style="edgeStyle=orthogonalEdgeStyle;rounded=0;orthogonalLoop=1;jettySize=auto;html=1;entryX=0.5;entryY=0;entryDx=0;entryDy=0;fontSize=9;fontColor=#000000;endArrow=block;endFill=1;" edge="1" parent="1" source="Vg_-dY5ANIHzuDw8YEnt-68" target="Vg_-dY5ANIHzuDw8YEnt-83">
          <mxGeometry relative="1" as="geometry" />
        </mxCell>
        <mxCell id="Vg_-dY5ANIHzuDw8YEnt-98" style="edgeStyle=orthogonalEdgeStyle;rounded=0;orthogonalLoop=1;jettySize=auto;html=1;entryX=0.5;entryY=0;entryDx=0;entryDy=0;fontSize=9;fontColor=#000000;endArrow=block;endFill=1;" edge="1" parent="1" source="Vg_-dY5ANIHzuDw8YEnt-68" target="Vg_-dY5ANIHzuDw8YEnt-86">
          <mxGeometry relative="1" as="geometry" />
        </mxCell>
        <mxCell id="Vg_-dY5ANIHzuDw8YEnt-102" value="si ipotizza" style="edgeLabel;html=1;align=center;verticalAlign=middle;resizable=0;points=[];fontSize=9;fontColor=#000000;" vertex="1" connectable="0" parent="Vg_-dY5ANIHzuDw8YEnt-98">
          <mxGeometry x="-0.88" relative="1" as="geometry">
            <mxPoint y="3" as="offset" />
          </mxGeometry>
        </mxCell>
        <mxCell id="Vg_-dY5ANIHzuDw8YEnt-68" value="&lt;div&gt;DIODO IDEALE&lt;/div&gt;" style="whiteSpace=wrap;html=1;fontSize=10;fontColor=#000000;strokeColor=#2D7600;fillColor=#66ff66;" vertex="1" parent="1">
          <mxGeometry x="392" y="596" width="120" height="30" as="geometry" />
        </mxCell>
        <mxCell id="Vg_-dY5ANIHzuDw8YEnt-72" value="\(v_D &amp;lt; V_\gamma \implies&lt;br&gt;i_D = 0\)" style="text;whiteSpace=wrap;html=1;fontSize=10;align=center;verticalAlign=middle;labelBorderColor=none;strokeColor=#b85450;strokeWidth=0.8;fillColor=#f8cecc;" vertex="1" parent="1">
          <mxGeometry x="22" y="786" width="120" height="17" as="geometry" />
        </mxCell>
        <mxCell id="Vg_-dY5ANIHzuDw8YEnt-77" value="\(i_D &amp;gt; 0 \implies&lt;br&gt;v_D = V_\gamma\)" style="text;whiteSpace=wrap;html=1;fontSize=10;align=center;verticalAlign=middle;labelBorderColor=none;strokeColor=#6c8ebf;strokeWidth=0.8;fillColor=#dae8fc;" vertex="1" parent="1">
          <mxGeometry x="162" y="786" width="120" height="17" as="geometry" />
        </mxCell>
        <mxCell id="Vg_-dY5ANIHzuDw8YEnt-81" style="edgeStyle=orthogonalEdgeStyle;rounded=0;orthogonalLoop=1;jettySize=auto;html=1;entryX=0.5;entryY=0;entryDx=0;entryDy=0;fontSize=11;fontColor=#000000;endArrow=block;endFill=1;" edge="1" source="Vg_-dY5ANIHzuDw8YEnt-83" target="Vg_-dY5ANIHzuDw8YEnt-89" parent="1">
          <mxGeometry relative="1" as="geometry" />
        </mxCell>
        <mxCell id="Vg_-dY5ANIHzuDw8YEnt-82" value="equivale" style="edgeLabel;html=1;align=center;verticalAlign=middle;resizable=0;points=[];fontSize=9;fontColor=#000000;" vertex="1" connectable="0" parent="Vg_-dY5ANIHzuDw8YEnt-81">
          <mxGeometry x="-0.28" relative="1" as="geometry">
            <mxPoint y="-8" as="offset" />
          </mxGeometry>
        </mxCell>
        <mxCell id="Vg_-dY5ANIHzuDw8YEnt-115" style="edgeStyle=none;rounded=0;orthogonalLoop=1;jettySize=auto;html=1;entryX=0.5;entryY=1;entryDx=0;entryDy=0;fontSize=8;fontColor=#000000;endArrow=block;endFill=1;" edge="1" parent="1" source="Vg_-dY5ANIHzuDw8YEnt-83" target="Vg_-dY5ANIHzuDw8YEnt-114">
          <mxGeometry relative="1" as="geometry" />
        </mxCell>
        <mxCell id="Vg_-dY5ANIHzuDw8YEnt-83" value="DIODO OFF" style="whiteSpace=wrap;html=1;fontSize=11;strokeColor=#b85450;fillColor=#f8cecc;" vertex="1" parent="1">
          <mxGeometry x="342" y="666" width="80" height="30" as="geometry" />
        </mxCell>
        <mxCell id="Vg_-dY5ANIHzuDw8YEnt-84" style="edgeStyle=orthogonalEdgeStyle;rounded=0;orthogonalLoop=1;jettySize=auto;html=1;entryX=0.5;entryY=0;entryDx=0;entryDy=0;fontSize=11;fontColor=#000000;endArrow=block;endFill=1;" edge="1" source="Vg_-dY5ANIHzuDw8YEnt-86" target="Vg_-dY5ANIHzuDw8YEnt-95" parent="1">
          <mxGeometry relative="1" as="geometry">
            <mxPoint x="522" y="726" as="targetPoint" />
          </mxGeometry>
        </mxCell>
        <mxCell id="Vg_-dY5ANIHzuDw8YEnt-85" value="equivale" style="edgeLabel;html=1;align=center;verticalAlign=middle;resizable=0;points=[];fontSize=9;fontColor=#000000;" vertex="1" connectable="0" parent="Vg_-dY5ANIHzuDw8YEnt-84">
          <mxGeometry x="-0.26" relative="1" as="geometry">
            <mxPoint y="-9" as="offset" />
          </mxGeometry>
        </mxCell>
        <mxCell id="Vg_-dY5ANIHzuDw8YEnt-112" style="edgeStyle=none;rounded=0;orthogonalLoop=1;jettySize=auto;html=1;entryX=0.5;entryY=1;entryDx=0;entryDy=0;fontSize=8;fontColor=#000000;endArrow=block;endFill=1;" edge="1" parent="1" source="Vg_-dY5ANIHzuDw8YEnt-86" target="Vg_-dY5ANIHzuDw8YEnt-110">
          <mxGeometry relative="1" as="geometry" />
        </mxCell>
        <mxCell id="Vg_-dY5ANIHzuDw8YEnt-86" value="&lt;div&gt;DIODO ON&lt;/div&gt;" style="whiteSpace=wrap;html=1;fontSize=11;strokeColor=#6c8ebf;fillColor=#dae8fc;" vertex="1" parent="1">
          <mxGeometry x="482" y="666" width="80" height="30" as="geometry" />
        </mxCell>
        <mxCell id="Vg_-dY5ANIHzuDw8YEnt-87" style="edgeStyle=orthogonalEdgeStyle;rounded=0;orthogonalLoop=1;jettySize=auto;html=1;entryX=0.5;entryY=0;entryDx=0;entryDy=0;fontSize=10;fontColor=#000000;endArrow=block;endFill=1;" edge="1" source="Vg_-dY5ANIHzuDw8YEnt-89" target="Vg_-dY5ANIHzuDw8YEnt-93" parent="1">
          <mxGeometry relative="1" as="geometry" />
        </mxCell>
        <mxCell id="Vg_-dY5ANIHzuDw8YEnt-88" value="cioè" style="edgeLabel;html=1;align=center;verticalAlign=middle;resizable=0;points=[];fontSize=9;fontColor=#000000;" vertex="1" connectable="0" parent="Vg_-dY5ANIHzuDw8YEnt-87">
          <mxGeometry relative="1" as="geometry">
            <mxPoint y="-3.937" as="offset" />
          </mxGeometry>
        </mxCell>
        <mxCell id="Vg_-dY5ANIHzuDw8YEnt-89" value="circuito aperto" style="whiteSpace=wrap;html=1;fontSize=11;strokeColor=#b85450;fillColor=#f8cecc;" vertex="1" parent="1">
          <mxGeometry x="337" y="726" width="90" height="30" as="geometry" />
        </mxCell>
        <mxCell id="Vg_-dY5ANIHzuDw8YEnt-90" style="edgeStyle=orthogonalEdgeStyle;rounded=0;orthogonalLoop=1;jettySize=auto;html=1;entryX=0.5;entryY=0;entryDx=0;entryDy=0;fontSize=9;fontColor=#000000;endArrow=block;endFill=1;exitX=0.5;exitY=1;exitDx=0;exitDy=0;" edge="1" source="Vg_-dY5ANIHzuDw8YEnt-95" target="Vg_-dY5ANIHzuDw8YEnt-94" parent="1">
          <mxGeometry relative="1" as="geometry">
            <mxPoint x="522.0416666666667" y="756" as="sourcePoint" />
          </mxGeometry>
        </mxCell>
        <mxCell id="Vg_-dY5ANIHzuDw8YEnt-91" value="cioè" style="edgeLabel;html=1;align=center;verticalAlign=middle;resizable=0;points=[];fontSize=9;fontColor=#000000;" vertex="1" connectable="0" parent="Vg_-dY5ANIHzuDw8YEnt-90">
          <mxGeometry relative="1" as="geometry">
            <mxPoint y="-3.937" as="offset" />
          </mxGeometry>
        </mxCell>
        <mxCell id="Vg_-dY5ANIHzuDw8YEnt-93" value="\(v_D &amp;lt; 0 \implies&lt;br&gt;i_D = 0\)" style="text;whiteSpace=wrap;html=1;fontSize=10;align=center;verticalAlign=middle;labelBorderColor=none;strokeColor=#b85450;strokeWidth=0.8;fillColor=#f8cecc;" vertex="1" parent="1">
          <mxGeometry x="322" y="786" width="120" height="17" as="geometry" />
        </mxCell>
        <mxCell id="Vg_-dY5ANIHzuDw8YEnt-94" value="\(i_D &amp;gt; 0 \implies&lt;br&gt;v_D = 0\)" style="text;whiteSpace=wrap;html=1;fontSize=10;align=center;verticalAlign=middle;labelBorderColor=none;strokeColor=#6c8ebf;strokeWidth=0.8;fillColor=#dae8fc;" vertex="1" parent="1">
          <mxGeometry x="462" y="786" width="120" height="17" as="geometry" />
        </mxCell>
        <mxCell id="Vg_-dY5ANIHzuDw8YEnt-95" value="corto circuito" style="whiteSpace=wrap;html=1;fontSize=11;strokeColor=#6c8ebf;fillColor=#dae8fc;" vertex="1" parent="1">
          <mxGeometry x="477" y="726" width="90" height="30" as="geometry" />
        </mxCell>
        <mxCell id="Vg_-dY5ANIHzuDw8YEnt-109" value="&lt;font style=&quot;font-size: 8px;&quot;&gt;HP verificata se: \(i_D&amp;gt;0\)&lt;/font&gt;" style="text;whiteSpace=wrap;html=1;fontSize=8;verticalAlign=middle;align=center;fillColor=#ffff88;strokeColor=#36393d;" vertex="1" parent="1">
          <mxGeometry x="227" y="606" width="65" height="30" as="geometry" />
        </mxCell>
        <mxCell id="Vg_-dY5ANIHzuDw8YEnt-110" value="&lt;font style=&quot;font-size: 8px;&quot;&gt;HP verificata se: \(i_D&amp;gt;0\)&lt;/font&gt;" style="text;whiteSpace=wrap;html=1;fontSize=8;verticalAlign=middle;align=center;fillColor=#ffff88;strokeColor=#36393d;" vertex="1" parent="1">
          <mxGeometry x="532" y="606" width="60" height="30" as="geometry" />
        </mxCell>
        <mxCell id="Vg_-dY5ANIHzuDw8YEnt-114" value="&lt;font style=&quot;font-size: 8px;&quot;&gt;HP verificata se: \(v_D&amp;lt;0\)&lt;/font&gt;" style="text;whiteSpace=wrap;html=1;fontSize=8;verticalAlign=middle;align=center;fillColor=#ffff88;strokeColor=#36393d;" vertex="1" parent="1">
          <mxGeometry x="312" y="606" width="65" height="30" as="geometry" />
        </mxCell>
        <mxCell id="Vg_-dY5ANIHzuDw8YEnt-116" value="&lt;font style=&quot;font-size: 8px;&quot;&gt;HP verificata se: \(v_D&amp;lt;V_\gamma\)&lt;/font&gt;" style="text;whiteSpace=wrap;html=1;fontSize=8;verticalAlign=middle;align=center;fillColor=#ffff88;strokeColor=#36393d;" vertex="1" parent="1">
          <mxGeometry x="12" y="606" width="65" height="30" as="geometry" />
        </mxCell>
        <mxCell id="Vg_-dY5ANIHzuDw8YEnt-125" value="&lt;div style=&quot;font-size: 9px;&quot; align=&quot;left&quot;&gt;&lt;i&gt;&lt;u&gt;si considerano solo le grandezze &lt;b&gt;costanti nel tempo&lt;/b&gt;:&lt;/u&gt;&lt;/i&gt;&lt;br&gt;&lt;/div&gt;&lt;div align=&quot;left&quot;&gt;- spegniamo i generatori variabili nel tempo&lt;br&gt;&lt;/div&gt;&lt;div align=&quot;left&quot;&gt;- condensatori → CA / induttori → CC&lt;/div&gt;&lt;div align=&quot;left&quot;&gt;- si considerano le caratteristiche non-lineari degli elementi non-lineari, eventualmentei modelli semplificati di ampio segnale&lt;/div&gt;&lt;div align=&quot;left&quot;&gt;- si analizza il circuito e si determina il punto di lavoro \(Q\) degli elementi non-lineari&lt;br&gt;&lt;/div&gt;" style="whiteSpace=wrap;html=1;shadow=0;labelBorderColor=none;fontSize=8;strokeColor=#d79b00;strokeWidth=0.8;fillColor=#ffe6cc;align=left;" vertex="1" parent="1">
          <mxGeometry x="860" y="570" width="280" height="70" as="geometry" />
        </mxCell>
        <mxCell id="Vg_-dY5ANIHzuDw8YEnt-130" style="edgeStyle=orthogonalEdgeStyle;rounded=0;orthogonalLoop=1;jettySize=auto;html=1;entryX=0.5;entryY=0;entryDx=0;entryDy=0;fontSize=9;fontColor=#000000;endArrow=block;endFill=1;exitX=1;exitY=0.5;exitDx=0;exitDy=0;" edge="1" parent="1" source="Vg_-dY5ANIHzuDw8YEnt-126" target="Vg_-dY5ANIHzuDw8YEnt-128">
          <mxGeometry relative="1" as="geometry" />
        </mxCell>
        <mxCell id="Vg_-dY5ANIHzuDw8YEnt-126" value="quando le grandezze d&#39;interesse variano di poco nell&#39;intorno di un punto \(Q\) (detto &lt;b style=&quot;font-size: 11px;&quot;&gt;punto di lavoro&lt;/b&gt;), è possibile linearizzarne la caratteristica in quel punto (approssimazione con la tangente di \(Q\))" style="whiteSpace=wrap;html=1;shadow=0;labelBorderColor=none;fontSize=11;strokeColor=#36393d;strokeWidth=0.8;fillColor=#eeeeee;" vertex="1" parent="1">
          <mxGeometry x="710" y="250" width="210" height="70" as="geometry" />
        </mxCell>
        <mxCell id="Vg_-dY5ANIHzuDw8YEnt-156" style="edgeStyle=orthogonalEdgeStyle;rounded=0;orthogonalLoop=1;jettySize=auto;html=1;entryX=0.522;entryY=0.032;entryDx=0;entryDy=0;entryPerimeter=0;fontSize=7;fontColor=#000000;endArrow=none;endFill=0;" edge="1" parent="1" source="Vg_-dY5ANIHzuDw8YEnt-128" target="Vg_-dY5ANIHzuDw8YEnt-134">
          <mxGeometry relative="1" as="geometry" />
        </mxCell>
        <mxCell id="Vg_-dY5ANIHzuDw8YEnt-157" style="edgeStyle=orthogonalEdgeStyle;rounded=0;orthogonalLoop=1;jettySize=auto;html=1;entryX=0.528;entryY=0.003;entryDx=0;entryDy=0;entryPerimeter=0;fontSize=7;fontColor=#000000;endArrow=none;endFill=0;" edge="1" parent="1" source="Vg_-dY5ANIHzuDw8YEnt-128" target="Vg_-dY5ANIHzuDw8YEnt-147">
          <mxGeometry relative="1" as="geometry" />
        </mxCell>
        <mxCell id="Vg_-dY5ANIHzuDw8YEnt-128" value="&lt;div align=&quot;left&quot;&gt;si scompongono le grandezze elettriche in:&lt;/div&gt;&lt;div style=&quot;font-size: 9px;&quot; align=&quot;left&quot;&gt;&lt;font style=&quot;font-size: 9px;&quot;&gt;- componenti nel punto di lavoro \(Q\), dette &lt;b&gt;di polarizzazione&lt;/b&gt;&lt;/font&gt;&lt;/div&gt;&lt;div style=&quot;font-size: 10px;&quot; align=&quot;left&quot;&gt;&lt;font style=&quot;font-size: 10px;&quot;&gt;- variazioni, dette &lt;b&gt;componenti di piccolo segnale&lt;/b&gt;&lt;/font&gt;&lt;br&gt;&lt;/div&gt;" style="whiteSpace=wrap;html=1;shadow=0;labelBorderColor=none;fontSize=11;fontColor=#000000;strokeColor=#333333;strokeWidth=0.8;fillColor=#66ff66;align=left;" vertex="1" parent="1">
          <mxGeometry x="870" y="330" width="260" height="50" as="geometry" />
        </mxCell>
        <mxCell id="Vg_-dY5ANIHzuDw8YEnt-152" value="" style="group;fillColor=#ffff88;strokeColor=#36393d;" vertex="1" connectable="0" parent="1">
          <mxGeometry x="840" y="420" width="160" height="60" as="geometry" />
        </mxCell>
        <mxCell id="Vg_-dY5ANIHzuDw8YEnt-134" value="$$i_D \quad = \quad I_D \quad + \quad i_d$$" style="text;whiteSpace=wrap;html=1;fontSize=11;fontColor=#000000;verticalAlign=middle;align=center;" vertex="1" parent="Vg_-dY5ANIHzuDw8YEnt-152">
          <mxGeometry x="4.129032258064516" width="144.51612903225805" height="20" as="geometry" />
        </mxCell>
        <mxCell id="Vg_-dY5ANIHzuDw8YEnt-136" value="corrente totale" style="text;whiteSpace=wrap;html=1;fontSize=7;fontColor=#000000;verticalAlign=middle;align=center;fontStyle=1" vertex="1" parent="Vg_-dY5ANIHzuDw8YEnt-152">
          <mxGeometry y="40" width="36.12903225806451" height="20" as="geometry" />
        </mxCell>
        <mxCell id="Vg_-dY5ANIHzuDw8YEnt-140" style="edgeStyle=orthogonalEdgeStyle;rounded=0;orthogonalLoop=1;jettySize=auto;html=1;entryX=0.5;entryY=0;entryDx=0;entryDy=0;fontSize=7;fontColor=#000000;endArrow=block;endFill=1;exitX=0.096;exitY=1.078;exitDx=0;exitDy=0;exitPerimeter=0;" edge="1" parent="Vg_-dY5ANIHzuDw8YEnt-152" source="Vg_-dY5ANIHzuDw8YEnt-134" target="Vg_-dY5ANIHzuDw8YEnt-136">
          <mxGeometry relative="1" as="geometry" />
        </mxCell>
        <mxCell id="Vg_-dY5ANIHzuDw8YEnt-137" value="valore in \(Q\)" style="text;whiteSpace=wrap;html=1;fontSize=7;fontColor=#000000;verticalAlign=middle;align=center;fontStyle=1" vertex="1" parent="Vg_-dY5ANIHzuDw8YEnt-152">
          <mxGeometry x="60.90322580645161" y="40" width="30.967741935483872" height="20" as="geometry" />
        </mxCell>
        <mxCell id="Vg_-dY5ANIHzuDw8YEnt-139" value="variazioni rispetto a \(Q\)" style="text;whiteSpace=wrap;html=1;fontSize=7;fontColor=#000000;verticalAlign=middle;align=center;fontStyle=1" vertex="1" parent="Vg_-dY5ANIHzuDw8YEnt-152">
          <mxGeometry x="108.38709677419355" y="40" width="51.61290322580645" height="20" as="geometry" />
        </mxCell>
        <mxCell id="Vg_-dY5ANIHzuDw8YEnt-142" style="edgeStyle=orthogonalEdgeStyle;rounded=0;orthogonalLoop=1;jettySize=auto;html=1;entryX=0.5;entryY=0;entryDx=0;entryDy=0;fontSize=7;fontColor=#000000;endArrow=block;endFill=1;exitX=0.899;exitY=1.003;exitDx=0;exitDy=0;exitPerimeter=0;" edge="1" parent="Vg_-dY5ANIHzuDw8YEnt-152" source="Vg_-dY5ANIHzuDw8YEnt-134" target="Vg_-dY5ANIHzuDw8YEnt-139">
          <mxGeometry relative="1" as="geometry" />
        </mxCell>
        <mxCell id="Vg_-dY5ANIHzuDw8YEnt-144" style="edgeStyle=orthogonalEdgeStyle;rounded=0;orthogonalLoop=1;jettySize=auto;html=1;entryX=0.5;entryY=0;entryDx=0;entryDy=0;fontSize=7;fontColor=#000000;endArrow=block;endFill=1;exitX=0.5;exitY=1;exitDx=0;exitDy=0;" edge="1" parent="Vg_-dY5ANIHzuDw8YEnt-152" source="Vg_-dY5ANIHzuDw8YEnt-134" target="Vg_-dY5ANIHzuDw8YEnt-137">
          <mxGeometry relative="1" as="geometry">
            <mxPoint x="76.38709677419342" y="20.000000000000057" as="sourcePoint" />
            <mxPoint x="76.53161290322579" y="39.94" as="targetPoint" />
          </mxGeometry>
        </mxCell>
        <mxCell id="Vg_-dY5ANIHzuDw8YEnt-153" value="" style="group;fillColor=#ffcc99;strokeColor=#36393d;" vertex="1" connectable="0" parent="1">
          <mxGeometry x="1000" y="420" width="160" height="60" as="geometry" />
        </mxCell>
        <mxCell id="Vg_-dY5ANIHzuDw8YEnt-147" value="$$v_D \quad = \quad V_D \quad + \quad v_d$$" style="text;whiteSpace=wrap;html=1;fontSize=11;fontColor=#000000;verticalAlign=middle;align=center;" vertex="1" parent="Vg_-dY5ANIHzuDw8YEnt-153">
          <mxGeometry x="4.129032258064516" width="144.51612903225805" height="20" as="geometry" />
        </mxCell>
        <mxCell id="Vg_-dY5ANIHzuDw8YEnt-148" value="tensione totale" style="text;whiteSpace=wrap;html=1;fontSize=7;fontColor=#000000;verticalAlign=middle;align=center;fontStyle=1" vertex="1" parent="Vg_-dY5ANIHzuDw8YEnt-153">
          <mxGeometry y="40" width="36.12903225806451" height="20" as="geometry" />
        </mxCell>
        <mxCell id="Vg_-dY5ANIHzuDw8YEnt-145" style="edgeStyle=orthogonalEdgeStyle;rounded=0;orthogonalLoop=1;jettySize=auto;html=1;entryX=0.5;entryY=0;entryDx=0;entryDy=0;fontSize=7;fontColor=#000000;endArrow=block;endFill=1;exitX=0.096;exitY=1.078;exitDx=0;exitDy=0;exitPerimeter=0;" edge="1" source="Vg_-dY5ANIHzuDw8YEnt-147" target="Vg_-dY5ANIHzuDw8YEnt-148" parent="Vg_-dY5ANIHzuDw8YEnt-153">
          <mxGeometry relative="1" as="geometry" />
        </mxCell>
        <mxCell id="Vg_-dY5ANIHzuDw8YEnt-149" value="valore in \(Q\)" style="text;whiteSpace=wrap;html=1;fontSize=7;fontColor=#000000;verticalAlign=middle;align=center;fontStyle=1" vertex="1" parent="Vg_-dY5ANIHzuDw8YEnt-153">
          <mxGeometry x="60.90322580645161" y="40" width="30.967741935483872" height="20" as="geometry" />
        </mxCell>
        <mxCell id="Vg_-dY5ANIHzuDw8YEnt-150" value="variazioni rispetto a \(Q\)" style="text;whiteSpace=wrap;html=1;fontSize=7;fontColor=#000000;verticalAlign=middle;align=center;fontStyle=1" vertex="1" parent="Vg_-dY5ANIHzuDw8YEnt-153">
          <mxGeometry x="108.38709677419355" y="40" width="51.61290322580645" height="20" as="geometry" />
        </mxCell>
        <mxCell id="Vg_-dY5ANIHzuDw8YEnt-146" style="edgeStyle=orthogonalEdgeStyle;rounded=0;orthogonalLoop=1;jettySize=auto;html=1;entryX=0.5;entryY=0;entryDx=0;entryDy=0;fontSize=7;fontColor=#000000;endArrow=block;endFill=1;exitX=0.899;exitY=1.003;exitDx=0;exitDy=0;exitPerimeter=0;" edge="1" source="Vg_-dY5ANIHzuDw8YEnt-147" target="Vg_-dY5ANIHzuDw8YEnt-150" parent="Vg_-dY5ANIHzuDw8YEnt-153">
          <mxGeometry relative="1" as="geometry" />
        </mxCell>
        <mxCell id="Vg_-dY5ANIHzuDw8YEnt-151" style="edgeStyle=orthogonalEdgeStyle;rounded=0;orthogonalLoop=1;jettySize=auto;html=1;entryX=0.5;entryY=0;entryDx=0;entryDy=0;fontSize=7;fontColor=#000000;endArrow=block;endFill=1;exitX=0.5;exitY=1;exitDx=0;exitDy=0;" edge="1" source="Vg_-dY5ANIHzuDw8YEnt-147" target="Vg_-dY5ANIHzuDw8YEnt-149" parent="Vg_-dY5ANIHzuDw8YEnt-153">
          <mxGeometry relative="1" as="geometry">
            <mxPoint x="76.38709677419355" y="20.000000000000057" as="sourcePoint" />
            <mxPoint x="76.53161290322568" y="39.94" as="targetPoint" />
          </mxGeometry>
        </mxCell>
        <mxCell id="Vg_-dY5ANIHzuDw8YEnt-160" value="&lt;div style=&quot;font-size: 9px;&quot; align=&quot;left&quot;&gt;&lt;i&gt;&lt;u&gt;si considerano solo le grandezze &lt;b&gt;variabili nel tempo&lt;/b&gt;:&lt;/u&gt;&lt;/i&gt;&lt;br&gt;&lt;/div&gt;&lt;div align=&quot;left&quot;&gt;- spegniamo i generatori costanti nel tempo&lt;br&gt;&lt;/div&gt;&lt;div align=&quot;left&quot;&gt;- si considerano gli elementi reattivi (condensatori e induttori) se presenti&lt;/div&gt;&lt;div style=&quot;font-size: 9px;&quot; align=&quot;left&quot;&gt;&lt;i&gt;&lt;u&gt;per gli elementi non-lineari:&lt;/u&gt;&lt;/i&gt;&lt;/div&gt;&lt;div align=&quot;left&quot;&gt;- si determinano i parametri di piccolo segnale nel punto di lavoro trovato prima&lt;/div&gt;&lt;div align=&quot;left&quot;&gt;- si sostituiscono con i relativi circuiti equivalenti per il piccolo segnale&lt;br&gt;&lt;/div&gt;" style="whiteSpace=wrap;html=1;shadow=0;labelBorderColor=none;fontSize=8;strokeColor=#d79b00;strokeWidth=0.8;fillColor=#ffe6cc;align=left;" vertex="1" parent="1">
          <mxGeometry x="860" y="650" width="280" height="70" as="geometry" />
        </mxCell>
        <mxCell id="Vg_-dY5ANIHzuDw8YEnt-167" value="&lt;div style=&quot;font-size: 9px;&quot; align=&quot;left&quot;&gt;&lt;i&gt;&lt;u&gt;se assunzioni che hanno portato a linearizzazione sono valide, &lt;b&gt;il circuito è lineare&lt;/b&gt;:&lt;/u&gt;&lt;/i&gt;&lt;br&gt;&lt;/div&gt;&lt;div align=&quot;left&quot;&gt;- vale il principio di sovrapposizione degli effetti&lt;/div&gt;&lt;div align=&quot;left&quot;&gt;- se il circuito è dinamico, si può analizzare nel dominio della frequenza (Laplace)&lt;br&gt;&lt;/div&gt;" style="whiteSpace=wrap;html=1;shadow=0;labelBorderColor=none;fontSize=8;strokeColor=#d79b00;strokeWidth=0.8;fillColor=#ffe6cc;align=left;" vertex="1" parent="1">
          <mxGeometry x="860" y="730" width="280" height="60" as="geometry" />
        </mxCell>
        <mxCell id="Vg_-dY5ANIHzuDw8YEnt-172" style="edgeStyle=orthogonalEdgeStyle;rounded=0;orthogonalLoop=1;jettySize=auto;html=1;entryX=0;entryY=0.5;entryDx=0;entryDy=0;exitX=0.5;exitY=0;exitDx=0;exitDy=0;" edge="1" parent="1" source="Vg_-dY5ANIHzuDw8YEnt-171" target="Vg_-dY5ANIHzuDw8YEnt-125">
          <mxGeometry relative="1" as="geometry">
            <Array as="points">
              <mxPoint x="640" y="605" />
            </Array>
          </mxGeometry>
        </mxCell>
        <mxCell id="Vg_-dY5ANIHzuDw8YEnt-173" value="&lt;div&gt;det. punto di lavoro \(Q\)&lt;/div&gt;" style="edgeLabel;html=1;align=center;verticalAlign=middle;resizable=0;points=[];" vertex="1" connectable="0" parent="Vg_-dY5ANIHzuDw8YEnt-172">
          <mxGeometry x="0.0142" relative="1" as="geometry">
            <mxPoint x="67" as="offset" />
          </mxGeometry>
        </mxCell>
        <mxCell id="Vg_-dY5ANIHzuDw8YEnt-178" value="1" style="edgeLabel;html=1;align=center;verticalAlign=middle;resizable=0;points=[];" vertex="1" connectable="0" parent="Vg_-dY5ANIHzuDw8YEnt-172">
          <mxGeometry x="-0.9286" y="1" relative="1" as="geometry">
            <mxPoint y="3" as="offset" />
          </mxGeometry>
        </mxCell>
        <mxCell id="Vg_-dY5ANIHzuDw8YEnt-174" style="edgeStyle=orthogonalEdgeStyle;rounded=0;orthogonalLoop=1;jettySize=auto;html=1;entryX=0;entryY=0.5;entryDx=0;entryDy=0;exitX=1;exitY=0.5;exitDx=0;exitDy=0;" edge="1" parent="1" source="Vg_-dY5ANIHzuDw8YEnt-171">
          <mxGeometry relative="1" as="geometry">
            <mxPoint x="690" y="685" as="sourcePoint" />
            <mxPoint x="860" y="685" as="targetPoint" />
          </mxGeometry>
        </mxCell>
        <mxCell id="Vg_-dY5ANIHzuDw8YEnt-175" value="det. circ. equiv. per il pic. seg." style="edgeLabel;html=1;align=center;verticalAlign=middle;resizable=0;points=[];" vertex="1" connectable="0" parent="Vg_-dY5ANIHzuDw8YEnt-174">
          <mxGeometry x="-0.2921" relative="1" as="geometry">
            <mxPoint x="30" y="-1" as="offset" />
          </mxGeometry>
        </mxCell>
        <mxCell id="Vg_-dY5ANIHzuDw8YEnt-179" value="2" style="edgeLabel;html=1;align=center;verticalAlign=middle;resizable=0;points=[];" vertex="1" connectable="0" parent="Vg_-dY5ANIHzuDw8YEnt-174">
          <mxGeometry x="-0.8972" y="-1" relative="1" as="geometry">
            <mxPoint x="-6" y="-2" as="offset" />
          </mxGeometry>
        </mxCell>
        <mxCell id="Vg_-dY5ANIHzuDw8YEnt-176" style="edgeStyle=orthogonalEdgeStyle;rounded=0;orthogonalLoop=1;jettySize=auto;html=1;entryX=-0.001;entryY=0.556;entryDx=0;entryDy=0;entryPerimeter=0;" edge="1" parent="1" source="Vg_-dY5ANIHzuDw8YEnt-171" target="Vg_-dY5ANIHzuDw8YEnt-167">
          <mxGeometry relative="1" as="geometry">
            <Array as="points">
              <mxPoint x="640" y="763" />
            </Array>
          </mxGeometry>
        </mxCell>
        <mxCell id="Vg_-dY5ANIHzuDw8YEnt-177" value="valutazione uscite circ. pic. seg." style="edgeLabel;html=1;align=center;verticalAlign=middle;resizable=0;points=[];" vertex="1" connectable="0" parent="Vg_-dY5ANIHzuDw8YEnt-176">
          <mxGeometry x="0.4212" y="-2" relative="1" as="geometry">
            <mxPoint x="-14" y="-3" as="offset" />
          </mxGeometry>
        </mxCell>
        <mxCell id="Vg_-dY5ANIHzuDw8YEnt-180" value="3" style="edgeLabel;html=1;align=center;verticalAlign=middle;resizable=0;points=[];" vertex="1" connectable="0" parent="Vg_-dY5ANIHzuDw8YEnt-176">
          <mxGeometry x="-0.9555" y="1" relative="1" as="geometry">
            <mxPoint x="-2" y="-1" as="offset" />
          </mxGeometry>
        </mxCell>
        <mxCell id="Vg_-dY5ANIHzuDw8YEnt-171" value="passaggi" style="rhombus;whiteSpace=wrap;html=1;fillColor=#f5f5f5;fontColor=#333333;strokeColor=#666666;" vertex="1" parent="1">
          <mxGeometry x="600" y="660" width="80" height="50" as="geometry" />
        </mxCell>
      </root>
    </mxGraphModel>
  </diagram>
</mxfile>
